<?xml version="1.0" encoding="utf-8"?>
<!-- Generator: Adobe Illustrator 22.1.0, SVG Export Plug-In . SVG Version: 6.00 Build 0)  -->
<svg version="1.1" xmlns="http://www.w3.org/2000/svg" xmlns:xlink="http://www.w3.org/1999/xlink" x="0px" y="0px"
	 viewBox="0 0 200 200" style="enable-background:new 0 0 200 200;" xml:space="preserve">
<style type="text/css">
	.st0{enable-background:new    ;}
	.st1{fill:#0D0E0F;}
	.st2{fill:none;}
</style>
<g id="Прямоугольник_1_1_" class="st0">
	<g id="Прямоугольник_1">
		<g>
			<path class="st1" d="M100,36.4l63.6,63.6L100,163.6L36.4,100L100,36.4 M100,29.3L29.3,100l70.7,70.7l70.7-70.7L100,29.3L100,29.3
				z"/>
		</g>
	</g>
</g>
<g id="W_x03_D">
	<g>
		<rect x="50" y="34" transform="matrix(0.7071 -0.7071 0.7071 0.7071 -30.1076 95.3137)" class="st2" width="100" height="100"/>
		<path class="st1" d="M96,91.2h-4.8l-7.1-26c-0.2-0.8-0.3-1-1-1.4c-0.6-0.3-1-0.5-1-1.2c0-1.3,1.6-1.3,2.6-1.3H94
			c0.9,0,2.3-0.1,2.3,1.2c0,1.4-1.8,1-1.8,2.5c0,0.4,0.1,0.6,0.2,1l4,14.7L96,91.2z M105.3,61.3l5.2,20l-2.5,10h-4.8L98,71.9
			l2.7-10.6H105.3z M110.2,73.5l1.5-6.2c0.1-0.6,0.3-1,0.3-1.6c0-2.1-2.5-1.8-2.5-3.2c0-0.9,0.8-1.1,1.6-1.1h5.2
			c0.8,0,1.6,0.1,1.6,1.1c0,0.6-0.3,0.8-0.8,1c-2,0.9-2.5,2.3-3,4.3l-2.6,10.2l-0.1,0L110.2,73.5z"/>
		<path class="st1" d="M98.5,139.2H88.4c-0.9,0-1.9-0.1-1.9-1.2c0-0.6,0.4-0.9,0.9-1.1c1.4-0.4,1.4-0.7,1.4-2.2v-21
			c0-0.6,0.1-1.7-0.7-1.9c-0.8-0.3-1.6-0.4-1.6-1.4c0-1,1-1.2,1.8-1.2h10.2V139.2z M100.3,109.3c6.8-0.1,12.5,4.6,13,15
			c0.4,9.4-6.3,15-13,15v-2.3c2.4-0.3,2.6-2.6,2.6-4.1v-17c0-1.5-0.1-3.8-2.6-4.1V109.3z"/>
	</g>
</g>
</svg>
